<mxfile host="drawio-plugin" modified="2022-11-05T10:48:26.564Z" agent="5.0 (Windows NT 6.2; Win64; x64) AppleWebKit/537.36 (KHTML, like Gecko) Chrome/98.0.4758.102 Safari/537.36" etag="273ypvaDDAV5Ps8K1-BG" version="15.5.4" type="embed"><diagram id="DtVpmX2BilBb1LRKZ0G4" name="Seite-1"><mxGraphModel dx="1140" dy="1903" grid="1" gridSize="10" guides="1" tooltips="1" connect="1" arrows="1" fold="1" page="1" pageScale="1" pageWidth="827" pageHeight="1169" math="0" shadow="0"><root><mxCell id="0"/><mxCell id="1" parent="0"/><mxCell id="c-7fdAGD610bVbhYbxDN-22" value="" style="group;dropTarget=0;pointerEvents=0;html=1;" parent="1" vertex="1"><mxGeometry x="50" y="50" width="286" height="218" as="geometry"/></mxCell><mxCell id="c-7fdAGD610bVbhYbxDN-23" value="Subclasses:" style="shape=partialRectangle;html=1;whiteSpace=wrap;connectable=0;fillColor=#a5ceff;strokeOpacity=100;fillOpacity=100;verticalAlign=middle;spacing=3.8;strokeColor=#333333;strokeWidth=0.8;fontSize=15;fontColor=#333333;fontStyle=1;spacingLeft=8.4;spacingRight=3.8;spacingTop=2.4;" parent="c-7fdAGD610bVbhYbxDN-22" vertex="1"><mxGeometry width="285.73138976153484" height="30" as="geometry"/></mxCell><mxCell id="c-7fdAGD610bVbhYbxDN-24" value="&lt;ul style=&quot;margin: 0px ; padding-left: 10px ; list-style-position: inside ; list-style-type: disc&quot;&gt;&lt;li style=&quot;text-align: left ; color: #333333 ; font-size: 13.3px&quot;&gt;holds static flyweight ship objects.&lt;/li&gt;&lt;li style=&quot;text-align: left ; color: #333333 ; font-size: 13.3px&quot;&gt;represents the different types of ships&lt;/li&gt;&lt;li style=&quot;text-align: left ; color: #333333 ; font-size: 13.3px&quot;&gt;holds length in an array, name and initial&lt;/li&gt;&lt;li style=&quot;text-align: left ; color: #333333 ; font-size: 13.3px&quot;&gt;hold its positions&lt;/li&gt;&lt;li style=&quot;text-align: left ; color: #333333 ; font-size: 13.3px&quot;&gt;manages own status by counting hits&lt;/li&gt;&lt;li style=&quot;text-align: left ; color: #333333 ; font-size: 13.3px&quot;&gt;returns status&lt;/li&gt;&lt;/ul&gt;" style="shape=partialRectangle;html=1;whiteSpace=wrap;connectable=0;fillColor=#ffffff;strokeOpacity=100;verticalAlign=middle;overflow=block;blockSpacing=1;spacing=3.8;strokeColor=#333333;strokeWidth=0.8;fontSize=13;" parent="c-7fdAGD610bVbhYbxDN-22" vertex="1"><mxGeometry y="30" width="169.48138976153484" height="187.69463648933845" as="geometry"/></mxCell><mxCell id="c-7fdAGD610bVbhYbxDN-25" value="&lt;ul style=&quot;margin: 0px ; padding-left: 10px ; list-style-position: inside ; list-style-type: disc&quot;&gt;&lt;li style=&quot;text-align: left ; color: #333333 ; font-size: 13.3px&quot;&gt;ShipType&lt;/li&gt;&lt;li style=&quot;text-align: left ; color: #333333 ; font-size: 13.3px&quot;&gt;Fleet&lt;/li&gt;&lt;li style=&quot;text-align: left ; color: #333333 ; font-size: 13.3px&quot;&gt;Grid&lt;/li&gt;&lt;li style=&quot;text-align: left ; color: #333333 ; font-size: 13.3px&quot;&gt;Player&lt;/li&gt;&lt;li style=&quot;text-align: left ; color: #333333 ; font-size: 13.3px&quot;&gt;Computer&lt;/li&gt;&lt;li style=&quot;text-align: left ; color: #333333 ; font-size: 13.3px&quot;&gt;Position&lt;/li&gt;&lt;li style=&quot;text-align: left ; color: #333333 ; font-size: 13.3px&quot;&gt;Input&lt;/li&gt;&lt;/ul&gt;" style="shape=partialRectangle;html=1;whiteSpace=wrap;connectable=0;fillColor=#ffffff;strokeOpacity=100;verticalAlign=middle;overflow=block;blockSpacing=1;spacing=3.8;strokeColor=#333333;strokeWidth=0.8;fontSize=13;" parent="c-7fdAGD610bVbhYbxDN-22" vertex="1"><mxGeometry x="169.48138976153484" y="30" width="116.25" height="187.69463648933845" as="geometry"/></mxCell><mxCell id="c-7fdAGD610bVbhYbxDN-26" value="" style="group;dropTarget=0;pointerEvents=0;html=1;" parent="1" vertex="1"><mxGeometry x="350" y="50" width="286" height="218" as="geometry"/></mxCell><mxCell id="c-7fdAGD610bVbhYbxDN-27" value="Subclasses:" style="shape=partialRectangle;html=1;whiteSpace=wrap;connectable=0;fillColor=#a5ceff;strokeOpacity=100;fillOpacity=100;verticalAlign=middle;spacing=3.8;strokeColor=#333333;strokeWidth=0.8;fontSize=15;fontColor=#333333;fontStyle=1;spacingLeft=8.4;spacingRight=3.8;spacingTop=2.4;" parent="c-7fdAGD610bVbhYbxDN-26" vertex="1"><mxGeometry width="285.73138976153484" height="30" as="geometry"/></mxCell><mxCell id="c-7fdAGD610bVbhYbxDN-28" value="&lt;ul style=&quot;margin: 0px; padding-left: 10px;list-style-position: inside; list-style-type:disc&quot;&gt;&lt;li style=&quot;text-align:left;color:#333333;font-size:13.3px;&quot;&gt;Responibilities&lt;/li&gt;&lt;/ul&gt;" style="shape=partialRectangle;html=1;whiteSpace=wrap;connectable=0;fillColor=#ffffff;strokeOpacity=100;verticalAlign=middle;overflow=block;blockSpacing=1;spacing=3.8;strokeColor=#333333;strokeWidth=0.8;fontSize=13;" parent="c-7fdAGD610bVbhYbxDN-26" vertex="1"><mxGeometry y="30" width="169.48138976153484" height="187.69463648933845" as="geometry"/></mxCell><mxCell id="c-7fdAGD610bVbhYbxDN-29" value="&lt;ul style=&quot;margin: 0px; padding-left: 10px;list-style-position: inside; list-style-type:disc&quot;&gt;&lt;li style=&quot;text-align:left;color:#333333;font-size:13.3px;&quot;&gt;Collaborators&lt;/li&gt;&lt;/ul&gt;" style="shape=partialRectangle;html=1;whiteSpace=wrap;connectable=0;fillColor=#ffffff;strokeOpacity=100;verticalAlign=middle;overflow=block;blockSpacing=1;spacing=3.8;strokeColor=#333333;strokeWidth=0.8;fontSize=13;" parent="c-7fdAGD610bVbhYbxDN-26" vertex="1"><mxGeometry x="169.48138976153484" y="30" width="116.25" height="187.69463648933845" as="geometry"/></mxCell><mxCell id="c-7fdAGD610bVbhYbxDN-30" value="" style="group;dropTarget=0;pointerEvents=0;html=1;" parent="1" vertex="1"><mxGeometry x="650.27" y="360" width="286" height="218" as="geometry"/></mxCell><mxCell id="c-7fdAGD610bVbhYbxDN-31" value="Subclasses:" style="shape=partialRectangle;html=1;whiteSpace=wrap;connectable=0;fillColor=#a5ceff;strokeOpacity=100;fillOpacity=100;verticalAlign=middle;spacing=3.8;strokeColor=#333333;strokeWidth=0.8;fontSize=15;fontColor=#333333;fontStyle=1;spacingLeft=8.4;spacingRight=3.8;spacingTop=2.4;" parent="c-7fdAGD610bVbhYbxDN-30" vertex="1"><mxGeometry width="285.73138976153484" height="30" as="geometry"/></mxCell><mxCell id="c-7fdAGD610bVbhYbxDN-32" value="&lt;ul style=&quot;margin: 0px; padding-left: 10px;list-style-position: inside; list-style-type:disc&quot;&gt;&lt;li style=&quot;text-align:left;color:#333333;font-size:13.3px;&quot;&gt;Responibilities&lt;/li&gt;&lt;/ul&gt;" style="shape=partialRectangle;html=1;whiteSpace=wrap;connectable=0;fillColor=#ffffff;strokeOpacity=100;verticalAlign=middle;overflow=block;blockSpacing=1;spacing=3.8;strokeColor=#333333;strokeWidth=0.8;fontSize=13;" parent="c-7fdAGD610bVbhYbxDN-30" vertex="1"><mxGeometry y="30" width="169.48138976153484" height="187.69463648933845" as="geometry"/></mxCell><mxCell id="c-7fdAGD610bVbhYbxDN-33" value="&lt;ul style=&quot;margin: 0px; padding-left: 10px;list-style-position: inside; list-style-type:disc&quot;&gt;&lt;li style=&quot;text-align:left;color:#333333;font-size:13.3px;&quot;&gt;Collaborators&lt;/li&gt;&lt;/ul&gt;" style="shape=partialRectangle;html=1;whiteSpace=wrap;connectable=0;fillColor=#ffffff;strokeOpacity=100;verticalAlign=middle;overflow=block;blockSpacing=1;spacing=3.8;strokeColor=#333333;strokeWidth=0.8;fontSize=13;" parent="c-7fdAGD610bVbhYbxDN-30" vertex="1"><mxGeometry x="169.48138976153484" y="30" width="116.25" height="187.69463648933845" as="geometry"/></mxCell><mxCell id="c-7fdAGD610bVbhYbxDN-34" value="" style="group;dropTarget=0;pointerEvents=0;html=1;" parent="1" vertex="1"><mxGeometry x="950" y="50" width="286" height="218" as="geometry"/></mxCell><mxCell id="c-7fdAGD610bVbhYbxDN-35" value="Subclasses:" style="shape=partialRectangle;html=1;whiteSpace=wrap;connectable=0;fillColor=#a5ceff;strokeOpacity=100;fillOpacity=100;verticalAlign=middle;spacing=3.8;strokeColor=#333333;strokeWidth=0.8;fontSize=15;fontColor=#333333;fontStyle=1;spacingLeft=8.4;spacingRight=3.8;spacingTop=2.4;" parent="c-7fdAGD610bVbhYbxDN-34" vertex="1"><mxGeometry width="285.73138976153484" height="30" as="geometry"/></mxCell><mxCell id="c-7fdAGD610bVbhYbxDN-36" value="&lt;ul style=&quot;margin: 0px; padding-left: 10px;list-style-position: inside; list-style-type:disc&quot;&gt;&lt;li style=&quot;text-align:left;color:#333333;font-size:13.3px;&quot;&gt;Responibilities&lt;/li&gt;&lt;/ul&gt;" style="shape=partialRectangle;html=1;whiteSpace=wrap;connectable=0;fillColor=#ffffff;strokeOpacity=100;verticalAlign=middle;overflow=block;blockSpacing=1;spacing=3.8;strokeColor=#333333;strokeWidth=0.8;fontSize=13;" parent="c-7fdAGD610bVbhYbxDN-34" vertex="1"><mxGeometry y="30" width="169.48138976153484" height="187.69463648933845" as="geometry"/></mxCell><mxCell id="c-7fdAGD610bVbhYbxDN-37" value="&lt;ul style=&quot;margin: 0px; padding-left: 10px;list-style-position: inside; list-style-type:disc&quot;&gt;&lt;li style=&quot;text-align:left;color:#333333;font-size:13.3px;&quot;&gt;Collaborators&lt;/li&gt;&lt;/ul&gt;" style="shape=partialRectangle;html=1;whiteSpace=wrap;connectable=0;fillColor=#ffffff;strokeOpacity=100;verticalAlign=middle;overflow=block;blockSpacing=1;spacing=3.8;strokeColor=#333333;strokeWidth=0.8;fontSize=13;" parent="c-7fdAGD610bVbhYbxDN-34" vertex="1"><mxGeometry x="169.48138976153484" y="30" width="116.25" height="187.69463648933845" as="geometry"/></mxCell><mxCell id="c-7fdAGD610bVbhYbxDN-38" value="" style="group;dropTarget=0;pointerEvents=0;html=1;" parent="1" vertex="1"><mxGeometry x="650.27" y="360" width="286" height="218" as="geometry"/></mxCell><mxCell id="c-7fdAGD610bVbhYbxDN-40" value="&lt;ul style=&quot;margin: 0px ; padding-left: 10px ; list-style-position: inside ; list-style-type: disc&quot;&gt;&lt;li style=&quot;text-align: left ; color: #333333 ; font-size: 13.3px&quot;&gt;processes and validates the input of the human player&lt;/li&gt;&lt;li style=&quot;text-align: left ; color: #333333 ; font-size: 13.3px&quot;&gt;translates Input into Grid coordinates&lt;/li&gt;&lt;li style=&quot;text-align: left ; color: #333333 ; font-size: 13.3px&quot;&gt;checks wheather coordinates are equal to ship length&lt;/li&gt;&lt;/ul&gt;" style="shape=partialRectangle;html=1;whiteSpace=wrap;connectable=0;fillColor=#ffffff;strokeOpacity=100;verticalAlign=middle;overflow=block;blockSpacing=1;spacing=3.8;strokeColor=#333333;strokeWidth=0.8;fontSize=13;" parent="c-7fdAGD610bVbhYbxDN-38" vertex="1"><mxGeometry y="30" width="169.48138976153484" height="187.69463648933845" as="geometry"/></mxCell><mxCell id="c-7fdAGD610bVbhYbxDN-41" value="&lt;ul style=&quot;margin: 0px ; padding-left: 10px ; list-style-position: inside ; list-style-type: disc&quot;&gt;&lt;li style=&quot;text-align: left ; color: #333333 ; font-size: 13.3px&quot;&gt;Player&lt;/li&gt;&lt;li style=&quot;text-align: left ; color: #333333 ; font-size: 13.3px&quot;&gt;Position&lt;/li&gt;&lt;/ul&gt;" style="shape=partialRectangle;html=1;whiteSpace=wrap;connectable=0;fillColor=#ffffff;strokeOpacity=100;verticalAlign=middle;overflow=block;blockSpacing=1;spacing=3.8;strokeColor=#333333;strokeWidth=0.8;fontSize=13;" parent="c-7fdAGD610bVbhYbxDN-38" vertex="1"><mxGeometry x="169.48138976153484" y="30" width="116.25" height="187.69463648933845" as="geometry"/></mxCell><mxCell id="c-7fdAGD610bVbhYbxDN-42" value="" style="group;dropTarget=0;pointerEvents=0;html=1;" parent="1" vertex="1"><mxGeometry x="950" y="50" width="286" height="218" as="geometry"/></mxCell><mxCell id="c-7fdAGD610bVbhYbxDN-44" value="&lt;ul style=&quot;margin: 0px ; padding-left: 10px ; list-style-position: inside ; list-style-type: disc&quot;&gt;&lt;li style=&quot;text-align: left ; color: #333333 ; font-size: 13.3px&quot;&gt;Saves the locations of the ships&lt;/li&gt;&lt;li style=&quot;text-align: left ; color: #333333 ; font-size: 13.3px&quot;&gt;has access to all the blocks&lt;/li&gt;&lt;li style=&quot;text-align: left ; color: #333333 ; font-size: 13.3px&quot;&gt;Checks if ship location is available&lt;/li&gt;&lt;/ul&gt;" style="shape=partialRectangle;html=1;whiteSpace=wrap;connectable=0;fillColor=#ffffff;strokeOpacity=100;verticalAlign=middle;overflow=block;blockSpacing=1;spacing=3.8;strokeColor=#333333;strokeWidth=0.8;fontSize=13;" parent="c-7fdAGD610bVbhYbxDN-42" vertex="1"><mxGeometry y="30" width="169.48138976153484" height="187.69463648933845" as="geometry"/></mxCell><mxCell id="c-7fdAGD610bVbhYbxDN-45" value="&lt;ul style=&quot;margin: 0px ; padding-left: 10px ; list-style-position: inside ; list-style-type: disc&quot;&gt;&lt;li style=&quot;text-align: left ; color: #333333 ; font-size: 13.3px&quot;&gt;Ship&lt;/li&gt;&lt;li style=&quot;text-align: left ; color: #333333 ; font-size: 13.3px&quot;&gt;Position&lt;/li&gt;&lt;li style=&quot;text-align: left ; color: #333333 ; font-size: 13.3px&quot;&gt;Block&lt;/li&gt;&lt;li style=&quot;text-align: left ; color: #333333 ; font-size: 13.3px&quot;&gt;Player&lt;/li&gt;&lt;li style=&quot;text-align: left ; color: #333333 ; font-size: 13.3px&quot;&gt;Computer&lt;/li&gt;&lt;/ul&gt;" style="shape=partialRectangle;html=1;whiteSpace=wrap;connectable=0;fillColor=#ffffff;strokeOpacity=100;verticalAlign=middle;overflow=block;blockSpacing=1;spacing=3.8;strokeColor=#333333;strokeWidth=0.8;fontSize=13;" parent="c-7fdAGD610bVbhYbxDN-42" vertex="1"><mxGeometry x="169.48138976153484" y="30" width="116.25" height="187.69463648933845" as="geometry"/></mxCell><mxCell id="c-7fdAGD610bVbhYbxDN-46" value="" style="group;dropTarget=0;pointerEvents=0;html=1;" parent="1" vertex="1"><mxGeometry x="350" y="50" width="286" height="218" as="geometry"/></mxCell><mxCell id="c-7fdAGD610bVbhYbxDN-48" value="&lt;ul style=&quot;margin: 0px ; padding-left: 10px ; list-style-position: inside ; list-style-type: disc&quot;&gt;&lt;li style=&quot;text-align: left ; color: #333333 ; font-size: 13.3px&quot;&gt;has a fleet and his oceangrid&lt;/li&gt;&lt;li style=&quot;text-align: left ; color: #333333 ; font-size: 13.3px&quot;&gt;sets location for his ships on the oceangrid&lt;/li&gt;&lt;li style=&quot;text-align: left ; color: #333333 ; font-size: 13.3px&quot;&gt;shoots to the targetgrid of the Computer&lt;/li&gt;&lt;/ul&gt;" style="shape=partialRectangle;html=1;whiteSpace=wrap;connectable=0;fillColor=#ffffff;strokeOpacity=100;verticalAlign=middle;overflow=block;blockSpacing=1;spacing=3.8;strokeColor=#333333;strokeWidth=0.8;fontSize=13;" parent="c-7fdAGD610bVbhYbxDN-46" vertex="1"><mxGeometry y="30" width="169.48138976153484" height="187.69463648933845" as="geometry"/></mxCell><mxCell id="c-7fdAGD610bVbhYbxDN-49" value="&lt;ul style=&quot;margin: 0px ; padding-left: 10px ; list-style-position: inside ; list-style-type: disc&quot;&gt;&lt;li style=&quot;text-align: left ; color: #333333 ; font-size: 13.3px&quot;&gt;Fleet&lt;/li&gt;&lt;li style=&quot;text-align: left ; color: #333333 ; font-size: 13.3px&quot;&gt;Grid&lt;/li&gt;&lt;li style=&quot;text-align: left ; color: #333333 ; font-size: 13.3px&quot;&gt;Computer&lt;/li&gt;&lt;li style=&quot;text-align: left ; color: #333333 ; font-size: 13.3px&quot;&gt;Position&lt;/li&gt;&lt;/ul&gt;" style="shape=partialRectangle;html=1;whiteSpace=wrap;connectable=0;fillColor=#ffffff;strokeOpacity=100;verticalAlign=middle;overflow=block;blockSpacing=1;spacing=3.8;strokeColor=#333333;strokeWidth=0.8;fontSize=13;" parent="c-7fdAGD610bVbhYbxDN-46" vertex="1"><mxGeometry x="169.48138976153484" y="30" width="116.25" height="187.69463648933845" as="geometry"/></mxCell><mxCell id="c-7fdAGD610bVbhYbxDN-50" value="" style="group;dropTarget=0;pointerEvents=0;html=1;" parent="1" vertex="1"><mxGeometry x="50" y="360" width="286" height="218" as="geometry"/></mxCell><mxCell id="c-7fdAGD610bVbhYbxDN-52" value="&lt;ul style=&quot;margin: 0px ; padding-left: 10px ; list-style-position: inside ; list-style-type: disc&quot;&gt;&lt;li style=&quot;text-align: left ; color: #333333 ; font-size: 13.3px&quot;&gt;Depiction of a block in the grid&lt;/li&gt;&lt;li style=&quot;text-align: left ; color: #333333 ; font-size: 13.3px&quot;&gt;holds type {Ship, Empty} and status {Hidden, Hit, Revealed}&lt;/li&gt;&lt;li style=&quot;text-align: left ; color: #333333 ; font-size: 13.3px&quot;&gt;holds the reference to a ship if type is Ship&lt;/li&gt;&lt;li style=&quot;text-align: left ; color: #333333 ; font-size: 13.3px&quot;&gt;returns type and status with booleans.&lt;/li&gt;&lt;/ul&gt;" style="shape=partialRectangle;html=1;whiteSpace=wrap;connectable=0;fillColor=#ffffff;strokeOpacity=100;verticalAlign=middle;overflow=block;blockSpacing=1;spacing=3.8;strokeColor=#333333;strokeWidth=0.8;fontSize=13;" parent="c-7fdAGD610bVbhYbxDN-50" vertex="1"><mxGeometry y="30" width="169.48138976153484" height="187.69463648933845" as="geometry"/></mxCell><mxCell id="c-7fdAGD610bVbhYbxDN-53" value="&lt;ul style=&quot;margin: 0px ; padding-left: 10px ; list-style-position: inside ; list-style-type: disc&quot;&gt;&lt;li style=&quot;text-align: left ; color: #333333 ; font-size: 13.3px&quot;&gt;Grid&lt;/li&gt;&lt;li style=&quot;text-align: left ; color: #333333 ; font-size: 13.3px&quot;&gt;Ship&lt;/li&gt;&lt;li style=&quot;text-align: left ; color: #333333 ; font-size: 13.3px&quot;&gt;Player&lt;/li&gt;&lt;li style=&quot;text-align: left ; color: #333333 ; font-size: 13.3px&quot;&gt;Computer&lt;/li&gt;&lt;/ul&gt;" style="shape=partialRectangle;html=1;whiteSpace=wrap;connectable=0;fillColor=#ffffff;strokeOpacity=100;verticalAlign=middle;overflow=block;blockSpacing=1;spacing=3.8;strokeColor=#333333;strokeWidth=0.8;fontSize=13;" parent="c-7fdAGD610bVbhYbxDN-50" vertex="1"><mxGeometry x="169.48138976153484" y="30" width="116.25" height="187.69463648933845" as="geometry"/></mxCell><mxCell id="c-7fdAGD610bVbhYbxDN-54" value="" style="group;dropTarget=0;pointerEvents=0;html=1;" parent="1" vertex="1"><mxGeometry x="650" y="50" width="286" height="218" as="geometry"/></mxCell><mxCell id="c-7fdAGD610bVbhYbxDN-56" value="&lt;ul style=&quot;margin: 0px ; padding-left: 10px ; list-style-position: inside ; list-style-type: disc&quot;&gt;&lt;li style=&quot;text-align: left ; color: #333333 ; font-size: 13.3px&quot;&gt;gets the ships of class Ship&lt;/li&gt;&lt;li style=&quot;text-align: left ; color: #333333 ; font-size: 13.3px&quot;&gt;holds ships and sunk ships&lt;/li&gt;&lt;li style=&quot;text-align: left ; color: #333333 ; font-size: 13.3px&quot;&gt;returns amount of ships of each list&lt;/li&gt;&lt;/ul&gt;" style="shape=partialRectangle;html=1;whiteSpace=wrap;connectable=0;fillColor=#ffffff;strokeOpacity=100;verticalAlign=middle;overflow=block;blockSpacing=1;spacing=3.8;strokeColor=#333333;strokeWidth=0.8;fontSize=13;" parent="c-7fdAGD610bVbhYbxDN-54" vertex="1"><mxGeometry y="30" width="169.48138976153484" height="187.69463648933845" as="geometry"/></mxCell><mxCell id="c-7fdAGD610bVbhYbxDN-57" value="&lt;ul style=&quot;margin: 0px ; padding-left: 10px ; list-style-position: inside ; list-style-type: disc&quot;&gt;&lt;li style=&quot;text-align: left ; color: #333333 ; font-size: 13.3px&quot;&gt;Player&lt;/li&gt;&lt;li style=&quot;text-align: left ; color: #333333 ; font-size: 13.3px&quot;&gt;Computer&lt;/li&gt;&lt;li style=&quot;text-align: left ; color: #333333 ; font-size: 13.3px&quot;&gt;Ship&lt;/li&gt;&lt;/ul&gt;" style="shape=partialRectangle;html=1;whiteSpace=wrap;connectable=0;fillColor=#ffffff;strokeOpacity=100;verticalAlign=middle;overflow=block;blockSpacing=1;spacing=3.8;strokeColor=#333333;strokeWidth=0.8;fontSize=13;" parent="c-7fdAGD610bVbhYbxDN-54" vertex="1"><mxGeometry x="169.48138976153484" y="30" width="116.25" height="187.69463648933845" as="geometry"/></mxCell><mxCell id="c-7fdAGD610bVbhYbxDN-58" value="" style="group;dropTarget=0;pointerEvents=0;html=1;" parent="1" vertex="1"><mxGeometry x="950" y="360" width="286" height="218" as="geometry"/></mxCell><mxCell id="c-7fdAGD610bVbhYbxDN-60" value="&lt;ul style=&quot;margin: 0px ; padding-left: 10px ; list-style-position: inside ; list-style-type: disc&quot;&gt;&lt;li style=&quot;text-align: left ; color: #333333 ; font-size: 13.3px&quot;&gt;Checks if the game is still running&lt;/li&gt;&lt;li style=&quot;text-align: left ; color: #333333 ; font-size: 13.3px&quot;&gt;alternates the draws between the human Player and the Computer&lt;/li&gt;&lt;li style=&quot;text-align: left ; color: #333333 ; font-size: 13.3px&quot;&gt;checks for winning conditions&lt;/li&gt;&lt;/ul&gt;" style="shape=partialRectangle;html=1;whiteSpace=wrap;connectable=0;fillColor=#ffffff;strokeOpacity=100;verticalAlign=middle;overflow=block;blockSpacing=1;spacing=3.8;strokeColor=#333333;strokeWidth=0.8;fontSize=13;" parent="c-7fdAGD610bVbhYbxDN-58" vertex="1"><mxGeometry y="30" width="169.48138976153484" height="187.69463648933845" as="geometry"/></mxCell><mxCell id="c-7fdAGD610bVbhYbxDN-61" value="&lt;div style=&quot;text-align: left&quot;&gt;&lt;font color=&quot;#333333&quot;&gt;&lt;span style=&quot;font-size: 13.3px&quot;&gt;&lt;br&gt;&lt;/span&gt;&lt;/font&gt;&lt;/div&gt;&lt;ul style=&quot;margin: 0px ; padding-left: 10px ; list-style-position: inside ; list-style-type: disc&quot;&gt;&lt;li style=&quot;text-align: left ; color: #333333 ; font-size: 13.3px&quot;&gt;Player&lt;/li&gt;&lt;li style=&quot;text-align: left ; color: #333333 ; font-size: 13.3px&quot;&gt;Computer&lt;/li&gt;&lt;/ul&gt;" style="shape=partialRectangle;html=1;whiteSpace=wrap;connectable=0;fillColor=#ffffff;strokeOpacity=100;verticalAlign=middle;overflow=block;blockSpacing=1;spacing=3.8;strokeColor=#333333;strokeWidth=0.8;fontSize=13;" parent="c-7fdAGD610bVbhYbxDN-58" vertex="1"><mxGeometry x="169.48138976153484" y="30" width="116.25" height="187.69463648933845" as="geometry"/></mxCell><mxCell id="c-7fdAGD610bVbhYbxDN-62" value="" style="group;dropTarget=0;pointerEvents=0;html=1;" parent="1" vertex="1"><mxGeometry x="350" y="360" width="286" height="218" as="geometry"/></mxCell><mxCell id="c-7fdAGD610bVbhYbxDN-64" value="&lt;ul style=&quot;margin: 0px ; padding-left: 10px ; list-style-position: inside ; list-style-type: disc&quot;&gt;&lt;li style=&quot;text-align: left ; color: #333333 ; font-size: 13.3px&quot;&gt;represents a position in the grid&lt;/li&gt;&lt;li style=&quot;text-align: left ; color: #333333 ; font-size: 13.3px&quot;&gt;holds column and row index&lt;/li&gt;&lt;li style=&quot;text-align: left ; color: #333333 ; font-size: 13.3px&quot;&gt;has boolean equals, same column and same row methods.&lt;/li&gt;&lt;/ul&gt;" style="shape=partialRectangle;html=1;whiteSpace=wrap;connectable=0;fillColor=#ffffff;strokeOpacity=100;verticalAlign=middle;overflow=block;blockSpacing=1;spacing=3.8;strokeColor=#333333;strokeWidth=0.8;fontSize=13;" parent="c-7fdAGD610bVbhYbxDN-62" vertex="1"><mxGeometry y="30" width="169.48138976153484" height="187.69463648933845" as="geometry"/></mxCell><mxCell id="c-7fdAGD610bVbhYbxDN-65" value="&lt;ul style=&quot;margin: 0px ; padding-left: 10px ; list-style-position: inside ; list-style-type: disc&quot;&gt;&lt;li style=&quot;text-align: left ; color: #333333 ; font-size: 13.3px&quot;&gt;Grid&lt;/li&gt;&lt;li style=&quot;text-align: left ; color: #333333 ; font-size: 13.3px&quot;&gt;Ship&lt;/li&gt;&lt;li style=&quot;text-align: left ; color: #333333 ; font-size: 13.3px&quot;&gt;Input&lt;/li&gt;&lt;li style=&quot;text-align: left ; color: #333333 ; font-size: 13.3px&quot;&gt;Player&lt;/li&gt;&lt;li style=&quot;text-align: left ; color: #333333 ; font-size: 13.3px&quot;&gt;Computer&lt;/li&gt;&lt;/ul&gt;" style="shape=partialRectangle;html=1;whiteSpace=wrap;connectable=0;fillColor=#ffffff;strokeOpacity=100;verticalAlign=middle;overflow=block;blockSpacing=1;spacing=3.8;strokeColor=#333333;strokeWidth=0.8;fontSize=13;" parent="c-7fdAGD610bVbhYbxDN-62" vertex="1"><mxGeometry x="169.48138976153484" y="30" width="116.25" height="187.69463648933845" as="geometry"/></mxCell><mxCell id="c-7fdAGD610bVbhYbxDN-82" value="Superclass(es):" style="shape=partialRectangle;html=1;whiteSpace=wrap;connectable=0;fillColor=#a5ceff;strokeOpacity=100;fillOpacity=100;verticalAlign=middle;spacing=3.8;strokeColor=#333333;strokeWidth=0.8;fontSize=15;fontColor=#333333;fontStyle=1;spacingLeft=8.4;spacingRight=3.8;spacingTop=2.4;" parent="1" vertex="1"><mxGeometry x="50" y="20" width="285.73138976153484" height="30" as="geometry"/></mxCell><mxCell id="c-7fdAGD610bVbhYbxDN-83" value="Ship" style="shape=partialRectangle;html=1;whiteSpace=wrap;connectable=0;fillColor=#a5ceff;strokeOpacity=100;fillOpacity=100;verticalAlign=middle;spacing=3.8;strokeColor=#333333;strokeWidth=0.8;fontSize=15;fontColor=#333333;fontStyle=1;spacingLeft=8.4;spacingRight=3.8;spacingTop=2.4;" parent="1" vertex="1"><mxGeometry x="50" y="-10" width="285.73138976153484" height="30" as="geometry"/></mxCell><mxCell id="c-7fdAGD610bVbhYbxDN-84" value="Superclass(es):" style="shape=partialRectangle;html=1;whiteSpace=wrap;connectable=0;fillColor=#a5ceff;strokeOpacity=100;fillOpacity=100;verticalAlign=middle;spacing=3.8;strokeColor=#333333;strokeWidth=0.8;fontSize=15;fontColor=#333333;fontStyle=1;spacingLeft=8.4;spacingRight=3.8;spacingTop=2.4;" parent="1" vertex="1"><mxGeometry x="350" y="20" width="285.73138976153484" height="30" as="geometry"/></mxCell><mxCell id="c-7fdAGD610bVbhYbxDN-85" value="Superclass(es):" style="shape=partialRectangle;html=1;whiteSpace=wrap;connectable=0;fillColor=#a5ceff;strokeOpacity=100;fillOpacity=100;verticalAlign=middle;spacing=3.8;strokeColor=#333333;strokeWidth=0.8;fontSize=15;fontColor=#333333;fontStyle=1;spacingLeft=8.4;spacingRight=3.8;spacingTop=2.4;" parent="1" vertex="1"><mxGeometry x="650.27" y="330" width="285.73138976153484" height="30" as="geometry"/></mxCell><mxCell id="c-7fdAGD610bVbhYbxDN-86" value="Superclass(es):" style="shape=partialRectangle;html=1;whiteSpace=wrap;connectable=0;fillColor=#a5ceff;strokeOpacity=100;fillOpacity=100;verticalAlign=middle;spacing=3.8;strokeColor=#333333;strokeWidth=0.8;fontSize=15;fontColor=#333333;fontStyle=1;spacingLeft=8.4;spacingRight=3.8;spacingTop=2.4;" parent="1" vertex="1"><mxGeometry x="950.27" y="20" width="285.73138976153484" height="30" as="geometry"/></mxCell><mxCell id="c-7fdAGD610bVbhYbxDN-47" value="Player&lt;br&gt;" style="shape=partialRectangle;html=1;whiteSpace=wrap;connectable=0;fillColor=#a5ceff;strokeOpacity=100;fillOpacity=100;verticalAlign=middle;spacing=3.8;strokeColor=#333333;strokeWidth=0.8;fontSize=15;fontColor=#333333;fontStyle=1;spacingLeft=8.4;spacingRight=3.8;spacingTop=2.4;" parent="1" vertex="1"><mxGeometry x="350" y="-10" width="285.73138976153484" height="30" as="geometry"/></mxCell><mxCell id="c-7fdAGD610bVbhYbxDN-39" value="Input" style="shape=partialRectangle;html=1;whiteSpace=wrap;connectable=0;fillColor=#a5ceff;strokeOpacity=100;fillOpacity=100;verticalAlign=middle;spacing=3.8;strokeColor=#333333;strokeWidth=0.8;fontSize=15;fontColor=#333333;fontStyle=1;spacingLeft=8.4;spacingRight=3.8;spacingTop=2.4;" parent="1" vertex="1"><mxGeometry x="650.27" y="300" width="285.73138976153484" height="30" as="geometry"/></mxCell><mxCell id="c-7fdAGD610bVbhYbxDN-43" value="Grid" style="shape=partialRectangle;html=1;whiteSpace=wrap;connectable=0;fillColor=#a5ceff;strokeOpacity=100;fillOpacity=100;verticalAlign=middle;spacing=3.8;strokeColor=#333333;strokeWidth=0.8;fontSize=15;fontColor=#333333;fontStyle=1;spacingLeft=8.4;spacingRight=3.8;spacingTop=2.4;" parent="1" vertex="1"><mxGeometry x="950" y="-10" width="285.73138976153484" height="30" as="geometry"/></mxCell><mxCell id="c-7fdAGD610bVbhYbxDN-87" value="Superclass(es):" style="shape=partialRectangle;html=1;whiteSpace=wrap;connectable=0;fillColor=#a5ceff;strokeOpacity=100;fillOpacity=100;verticalAlign=middle;spacing=3.8;strokeColor=#333333;strokeWidth=0.8;fontSize=15;fontColor=#333333;fontStyle=1;spacingLeft=8.4;spacingRight=3.8;spacingTop=2.4;" parent="1" vertex="1"><mxGeometry x="50.26999999999998" y="330" width="285.73138976153484" height="30" as="geometry"/></mxCell><mxCell id="c-7fdAGD610bVbhYbxDN-88" value="Superclass(es):" style="shape=partialRectangle;html=1;whiteSpace=wrap;connectable=0;fillColor=#a5ceff;strokeOpacity=100;fillOpacity=100;verticalAlign=middle;spacing=3.8;strokeColor=#333333;strokeWidth=0.8;fontSize=15;fontColor=#333333;fontStyle=1;spacingLeft=8.4;spacingRight=3.8;spacingTop=2.4;" parent="1" vertex="1"><mxGeometry x="350" y="330" width="285.73138976153484" height="30" as="geometry"/></mxCell><mxCell id="c-7fdAGD610bVbhYbxDN-89" value="Superclass(es):" style="shape=partialRectangle;html=1;whiteSpace=wrap;connectable=0;fillColor=#a5ceff;strokeOpacity=100;fillOpacity=100;verticalAlign=middle;spacing=3.8;strokeColor=#333333;strokeWidth=0.8;fontSize=15;fontColor=#333333;fontStyle=1;spacingLeft=8.4;spacingRight=3.8;spacingTop=2.4;" parent="1" vertex="1"><mxGeometry x="650.27" y="20" width="285.73138976153484" height="30" as="geometry"/></mxCell><mxCell id="c-7fdAGD610bVbhYbxDN-90" value="Superclass(es):" style="shape=partialRectangle;html=1;whiteSpace=wrap;connectable=0;fillColor=#a5ceff;strokeOpacity=100;fillOpacity=100;verticalAlign=middle;spacing=3.8;strokeColor=#333333;strokeWidth=0.8;fontSize=15;fontColor=#333333;fontStyle=1;spacingLeft=8.4;spacingRight=3.8;spacingTop=2.4;" parent="1" vertex="1"><mxGeometry x="950" y="330" width="285.73138976153484" height="30" as="geometry"/></mxCell><mxCell id="c-7fdAGD610bVbhYbxDN-51" value="Block" style="shape=partialRectangle;html=1;whiteSpace=wrap;connectable=0;fillColor=#a5ceff;strokeOpacity=100;fillOpacity=100;verticalAlign=middle;spacing=3.8;strokeColor=#333333;strokeWidth=0.8;fontSize=15;fontColor=#333333;fontStyle=1;spacingLeft=8.4;spacingRight=3.8;spacingTop=2.4;" parent="1" vertex="1"><mxGeometry x="50" y="300" width="285.73138976153484" height="30" as="geometry"/></mxCell><mxCell id="c-7fdAGD610bVbhYbxDN-63" value="Position" style="shape=partialRectangle;html=1;whiteSpace=wrap;connectable=0;fillColor=#a5ceff;strokeOpacity=100;fillOpacity=100;verticalAlign=middle;spacing=3.8;strokeColor=#333333;strokeWidth=0.8;fontSize=15;fontColor=#333333;fontStyle=1;spacingLeft=8.4;spacingRight=3.8;spacingTop=2.4;" parent="1" vertex="1"><mxGeometry x="350" y="300" width="285.73138976153484" height="30" as="geometry"/></mxCell><mxCell id="c-7fdAGD610bVbhYbxDN-55" value="Fleet" style="shape=partialRectangle;html=1;whiteSpace=wrap;connectable=0;fillColor=#a5ceff;strokeOpacity=100;fillOpacity=100;verticalAlign=middle;spacing=3.8;strokeColor=#333333;strokeWidth=0.8;fontSize=15;fontColor=#333333;fontStyle=1;spacingLeft=8.4;spacingRight=3.8;spacingTop=2.4;" parent="1" vertex="1"><mxGeometry x="650.27" y="-10" width="285.73138976153484" height="30" as="geometry"/></mxCell><mxCell id="c-7fdAGD610bVbhYbxDN-59" value="Game" style="shape=partialRectangle;html=1;whiteSpace=wrap;connectable=0;fillColor=#a5ceff;strokeOpacity=100;fillOpacity=100;verticalAlign=middle;spacing=3.8;strokeColor=#333333;strokeWidth=0.8;fontSize=15;fontColor=#333333;fontStyle=1;spacingLeft=8.4;spacingRight=3.8;spacingTop=2.4;" parent="1" vertex="1"><mxGeometry x="950.27" y="300" width="285.73138976153484" height="30" as="geometry"/></mxCell><mxCell id="c-7fdAGD610bVbhYbxDN-91" value="Subclasses:" style="shape=partialRectangle;html=1;whiteSpace=wrap;connectable=0;fillColor=#a5ceff;strokeOpacity=100;fillOpacity=100;verticalAlign=middle;spacing=3.8;strokeColor=#333333;strokeWidth=0.8;fontSize=15;fontColor=#333333;fontStyle=1;spacingLeft=8.4;spacingRight=3.8;spacingTop=2.4;" parent="1" vertex="1"><mxGeometry x="50" y="360" width="285.73138976153484" height="30" as="geometry"/></mxCell><mxCell id="c-7fdAGD610bVbhYbxDN-92" value="Subclasses:" style="shape=partialRectangle;html=1;whiteSpace=wrap;connectable=0;fillColor=#a5ceff;strokeOpacity=100;fillOpacity=100;verticalAlign=middle;spacing=3.8;strokeColor=#333333;strokeWidth=0.8;fontSize=15;fontColor=#333333;fontStyle=1;spacingLeft=8.4;spacingRight=3.8;spacingTop=2.4;" parent="1" vertex="1"><mxGeometry x="350" y="360" width="285.73138976153484" height="30" as="geometry"/></mxCell><mxCell id="c-7fdAGD610bVbhYbxDN-93" value="Subclasses:" style="shape=partialRectangle;html=1;whiteSpace=wrap;connectable=0;fillColor=#a5ceff;strokeOpacity=100;fillOpacity=100;verticalAlign=middle;spacing=3.8;strokeColor=#333333;strokeWidth=0.8;fontSize=15;fontColor=#333333;fontStyle=1;spacingLeft=8.4;spacingRight=3.8;spacingTop=2.4;" parent="1" vertex="1"><mxGeometry x="650" y="50" width="285.73138976153484" height="30" as="geometry"/></mxCell><mxCell id="c-7fdAGD610bVbhYbxDN-94" value="Subclasses:" style="shape=partialRectangle;html=1;whiteSpace=wrap;connectable=0;fillColor=#a5ceff;strokeOpacity=100;fillOpacity=100;verticalAlign=middle;spacing=3.8;strokeColor=#333333;strokeWidth=0.8;fontSize=15;fontColor=#333333;fontStyle=1;spacingLeft=8.4;spacingRight=3.8;spacingTop=2.4;" parent="1" vertex="1"><mxGeometry x="950.27" y="360" width="285.73138976153484" height="30" as="geometry"/></mxCell><mxCell id="c-7fdAGD610bVbhYbxDN-95" value="Class1" style="swimlane;fontStyle=1;align=center;verticalAlign=middle;childLayout=stackLayout;horizontal=1;startSize=29;horizontalStack=0;resizeParent=1;resizeParentMax=0;resizeLast=0;collapsible=0;marginBottom=0;html=1;" parent="1" vertex="1"><mxGeometry x="80" y="1000" width="140" height="79" as="geometry"/></mxCell><mxCell id="c-7fdAGD610bVbhYbxDN-96" value="&amp;lt;&amp;lt;stereotype1&amp;gt;&amp;gt;" style="text;html=1;strokeColor=none;fillColor=none;align=center;verticalAlign=middle;spacingLeft=4;spacingRight=4;overflow=hidden;rotatable=0;points=[[0,0.5],[1,0.5]];portConstraint=eastwest;" parent="c-7fdAGD610bVbhYbxDN-95" vertex="1"><mxGeometry y="29" width="140" height="25" as="geometry"/></mxCell><mxCell id="c-7fdAGD610bVbhYbxDN-97" value="stereotype property 1" style="text;html=1;strokeColor=none;fillColor=none;align=left;verticalAlign=middle;spacingLeft=4;spacingRight=4;overflow=hidden;rotatable=0;points=[[0,0.5],[1,0.5]];portConstraint=eastwest;" parent="c-7fdAGD610bVbhYbxDN-95" vertex="1"><mxGeometry y="54" width="140" height="25" as="geometry"/></mxCell><mxCell id="c-7fdAGD610bVbhYbxDN-98" value="Class1" style="swimlane;fontStyle=1;align=center;verticalAlign=middle;childLayout=stackLayout;horizontal=1;startSize=29;horizontalStack=0;resizeParent=1;resizeParentMax=0;resizeLast=0;collapsible=0;marginBottom=0;html=1;" parent="1" vertex="1"><mxGeometry x="290" y="1000" width="140" height="79" as="geometry"/></mxCell><mxCell id="c-7fdAGD610bVbhYbxDN-99" value="&amp;lt;&amp;lt;stereotype1&amp;gt;&amp;gt;" style="text;html=1;strokeColor=none;fillColor=none;align=center;verticalAlign=middle;spacingLeft=4;spacingRight=4;overflow=hidden;rotatable=0;points=[[0,0.5],[1,0.5]];portConstraint=eastwest;" parent="c-7fdAGD610bVbhYbxDN-98" vertex="1"><mxGeometry y="29" width="140" height="25" as="geometry"/></mxCell><mxCell id="c-7fdAGD610bVbhYbxDN-100" value="stereotype property 1" style="text;html=1;strokeColor=none;fillColor=none;align=left;verticalAlign=middle;spacingLeft=4;spacingRight=4;overflow=hidden;rotatable=0;points=[[0,0.5],[1,0.5]];portConstraint=eastwest;" parent="c-7fdAGD610bVbhYbxDN-98" vertex="1"><mxGeometry y="54" width="140" height="25" as="geometry"/></mxCell><mxCell id="c-7fdAGD610bVbhYbxDN-101" value="" style="group;dropTarget=0;pointerEvents=0;html=1;" parent="1" vertex="1"><mxGeometry x="949.73" y="670" width="286" height="218" as="geometry"/></mxCell><mxCell id="c-7fdAGD610bVbhYbxDN-102" value="Subclasses:" style="shape=partialRectangle;html=1;whiteSpace=wrap;connectable=0;fillColor=#a5ceff;strokeOpacity=100;fillOpacity=100;verticalAlign=middle;spacing=3.8;strokeColor=#333333;strokeWidth=0.8;fontSize=15;fontColor=#333333;fontStyle=1;spacingLeft=8.4;spacingRight=3.8;spacingTop=2.4;" parent="c-7fdAGD610bVbhYbxDN-101" vertex="1"><mxGeometry width="285.73138976153484" height="30" as="geometry"/></mxCell><mxCell id="c-7fdAGD610bVbhYbxDN-103" value="&lt;ul style=&quot;margin: 0px; padding-left: 10px;list-style-position: inside; list-style-type:disc&quot;&gt;&lt;li style=&quot;text-align:left;color:#333333;font-size:13.3px;&quot;&gt;Responibilities&lt;/li&gt;&lt;/ul&gt;" style="shape=partialRectangle;html=1;whiteSpace=wrap;connectable=0;fillColor=#ffffff;strokeOpacity=100;verticalAlign=middle;overflow=block;blockSpacing=1;spacing=3.8;strokeColor=#333333;strokeWidth=0.8;fontSize=13;" parent="c-7fdAGD610bVbhYbxDN-101" vertex="1"><mxGeometry y="30" width="169.48138976153484" height="187.69463648933845" as="geometry"/></mxCell><mxCell id="c-7fdAGD610bVbhYbxDN-104" value="&lt;ul style=&quot;margin: 0px; padding-left: 10px;list-style-position: inside; list-style-type:disc&quot;&gt;&lt;li style=&quot;text-align:left;color:#333333;font-size:13.3px;&quot;&gt;Collaborators&lt;/li&gt;&lt;/ul&gt;" style="shape=partialRectangle;html=1;whiteSpace=wrap;connectable=0;fillColor=#ffffff;strokeOpacity=100;verticalAlign=middle;overflow=block;blockSpacing=1;spacing=3.8;strokeColor=#333333;strokeWidth=0.8;fontSize=13;" parent="c-7fdAGD610bVbhYbxDN-101" vertex="1"><mxGeometry x="169.48138976153484" y="30" width="116.25" height="187.69463648933845" as="geometry"/></mxCell><mxCell id="c-7fdAGD610bVbhYbxDN-105" value="" style="group;dropTarget=0;pointerEvents=0;html=1;" parent="1" vertex="1"><mxGeometry x="950" y="670" width="286" height="218" as="geometry"/></mxCell><mxCell id="c-7fdAGD610bVbhYbxDN-106" value="&lt;ul style=&quot;margin: 0px ; padding-left: 10px ; list-style-position: inside ; list-style-type: disc&quot;&gt;&lt;li style=&quot;text-align: left ; color: #333333 ; font-size: 13.3px&quot;&gt;output of the grid after each turn&lt;/li&gt;&lt;/ul&gt;" style="shape=partialRectangle;html=1;whiteSpace=wrap;connectable=0;fillColor=#ffffff;strokeOpacity=100;verticalAlign=middle;overflow=block;blockSpacing=1;spacing=3.8;strokeColor=#333333;strokeWidth=0.8;fontSize=13;" parent="c-7fdAGD610bVbhYbxDN-105" vertex="1"><mxGeometry y="30" width="169.48138976153484" height="187.69463648933845" as="geometry"/></mxCell><mxCell id="c-7fdAGD610bVbhYbxDN-107" value="&lt;ul style=&quot;margin: 0px; padding-left: 10px;list-style-position: inside; list-style-type:disc&quot;&gt;&lt;li style=&quot;text-align:left;color:#333333;font-size:13.3px;&quot;&gt;Grid&lt;/li&gt;&lt;/ul&gt;" style="shape=partialRectangle;html=1;whiteSpace=wrap;connectable=0;fillColor=#ffffff;strokeOpacity=100;verticalAlign=middle;overflow=block;blockSpacing=1;spacing=3.8;strokeColor=#333333;strokeWidth=0.8;fontSize=13;" parent="c-7fdAGD610bVbhYbxDN-105" vertex="1"><mxGeometry x="169.48138976153484" y="30" width="116.25" height="187.69463648933845" as="geometry"/></mxCell><mxCell id="c-7fdAGD610bVbhYbxDN-108" value="Superclass(es):" style="shape=partialRectangle;html=1;whiteSpace=wrap;connectable=0;fillColor=#a5ceff;strokeOpacity=100;fillOpacity=100;verticalAlign=middle;spacing=3.8;strokeColor=#333333;strokeWidth=0.8;fontSize=15;fontColor=#333333;fontStyle=1;spacingLeft=8.4;spacingRight=3.8;spacingTop=2.4;" parent="1" vertex="1"><mxGeometry x="950" y="640" width="285.73138976153484" height="30" as="geometry"/></mxCell><mxCell id="c-7fdAGD610bVbhYbxDN-109" value="Output&lt;br&gt;" style="shape=partialRectangle;html=1;whiteSpace=wrap;connectable=0;fillColor=#a5ceff;strokeOpacity=100;fillOpacity=100;verticalAlign=middle;spacing=3.8;strokeColor=#333333;strokeWidth=0.8;fontSize=15;fontColor=#333333;fontStyle=1;spacingLeft=8.4;spacingRight=3.8;spacingTop=2.4;" parent="1" vertex="1"><mxGeometry x="950" y="610" width="285.73138976153484" height="30" as="geometry"/></mxCell><mxCell id="2" value="Computer" style="shape=partialRectangle;html=1;whiteSpace=wrap;connectable=0;fillColor=#a5ceff;strokeOpacity=100;fillOpacity=100;verticalAlign=middle;spacing=3.8;strokeColor=#333333;strokeWidth=0.8;fontSize=15;fontColor=#333333;fontStyle=1;spacingLeft=8.4;spacingRight=3.8;spacingTop=2.4;" vertex="1" parent="1"><mxGeometry x="50" y="610" width="285.73138976153484" height="30" as="geometry"/></mxCell><mxCell id="3" value="Superclass(es):" style="shape=partialRectangle;html=1;whiteSpace=wrap;connectable=0;fillColor=#a5ceff;strokeOpacity=100;fillOpacity=100;verticalAlign=middle;spacing=3.8;strokeColor=#333333;strokeWidth=0.8;fontSize=15;fontColor=#333333;fontStyle=1;spacingLeft=8.4;spacingRight=3.8;spacingTop=2.4;" vertex="1" parent="1"><mxGeometry x="50.26999999999998" y="640" width="285.73138976153484" height="30" as="geometry"/></mxCell><mxCell id="4" value="Subclasses:" style="shape=partialRectangle;html=1;whiteSpace=wrap;connectable=0;fillColor=#a5ceff;strokeOpacity=100;fillOpacity=100;verticalAlign=middle;spacing=3.8;strokeColor=#333333;strokeWidth=0.8;fontSize=15;fontColor=#333333;fontStyle=1;spacingLeft=8.4;spacingRight=3.8;spacingTop=2.4;" vertex="1" parent="1"><mxGeometry x="50" y="670" width="285.73138976153484" height="30" as="geometry"/></mxCell><mxCell id="5" value="" style="group;dropTarget=0;pointerEvents=0;html=1;" vertex="1" parent="1"><mxGeometry x="50" y="670" width="286" height="218" as="geometry"/></mxCell><mxCell id="6" value="&lt;ul style=&quot;margin: 0px ; padding-left: 10px ; list-style-position: inside ; list-style-type: disc&quot;&gt;&lt;li style=&quot;text-align: left ; color: rgb(51 , 51 , 51) ; font-size: 13.3px&quot;&gt;has a fleet and his oceangrid&lt;/li&gt;&lt;li style=&quot;text-align: left ; color: rgb(51 , 51 , 51) ; font-size: 13.3px&quot;&gt;sets location for his ships on the oceangrid&lt;/li&gt;&lt;li style=&quot;text-align: left ; color: rgb(51 , 51 , 51) ; font-size: 13.3px&quot;&gt;shoots to the targetgrid of the Player&lt;/li&gt;&lt;/ul&gt;" style="shape=partialRectangle;html=1;whiteSpace=wrap;connectable=0;fillColor=#ffffff;strokeOpacity=100;verticalAlign=middle;overflow=block;blockSpacing=1;spacing=3.8;strokeColor=#333333;strokeWidth=0.8;fontSize=13;" vertex="1" parent="5"><mxGeometry y="30" width="169.48138976153484" height="187.69463648933845" as="geometry"/></mxCell><mxCell id="7" value="&lt;ul style=&quot;margin: 0px ; padding-left: 10px ; list-style-position: inside ; list-style-type: disc&quot;&gt;&lt;li style=&quot;text-align: left ; color: #333333 ; font-size: 13.3px&quot;&gt;Fleet&lt;/li&gt;&lt;li style=&quot;text-align: left ; color: #333333 ; font-size: 13.3px&quot;&gt;Grid&lt;/li&gt;&lt;li style=&quot;text-align: left ; color: #333333 ; font-size: 13.3px&quot;&gt;Player&lt;/li&gt;&lt;li style=&quot;text-align: left ; color: #333333 ; font-size: 13.3px&quot;&gt;Position&lt;/li&gt;&lt;/ul&gt;" style="shape=partialRectangle;html=1;whiteSpace=wrap;connectable=0;fillColor=#ffffff;strokeOpacity=100;verticalAlign=middle;overflow=block;blockSpacing=1;spacing=3.8;strokeColor=#333333;strokeWidth=0.8;fontSize=13;" vertex="1" parent="5"><mxGeometry x="169.48138976153484" y="30" width="116.25" height="187.69463648933845" as="geometry"/></mxCell><mxCell id="8" value="Spieler" style="shape=partialRectangle;html=1;whiteSpace=wrap;connectable=0;fillColor=#a5ceff;strokeOpacity=100;fillOpacity=100;verticalAlign=middle;spacing=3.8;strokeColor=#333333;strokeWidth=0.8;fontSize=15;fontColor=#333333;fontStyle=1;spacingLeft=8.4;spacingRight=3.8;spacingTop=2.4;" vertex="1" parent="1"><mxGeometry x="350.13" y="610" width="285.73138976153484" height="30" as="geometry"/></mxCell><mxCell id="9" value="ShipType" style="shape=partialRectangle;html=1;whiteSpace=wrap;connectable=0;fillColor=#a5ceff;strokeOpacity=100;fillOpacity=100;verticalAlign=middle;spacing=3.8;strokeColor=#333333;strokeWidth=0.8;fontSize=15;fontColor=#333333;fontStyle=1;spacingLeft=8.4;spacingRight=3.8;spacingTop=2.4;" vertex="1" parent="1"><mxGeometry x="650" y="610" width="285.73138976153484" height="30" as="geometry"/></mxCell><mxCell id="10" value="Superclass(es):" style="shape=partialRectangle;html=1;whiteSpace=wrap;connectable=0;fillColor=#a5ceff;strokeOpacity=100;fillOpacity=100;verticalAlign=middle;spacing=3.8;strokeColor=#333333;strokeWidth=0.8;fontSize=15;fontColor=#333333;fontStyle=1;spacingLeft=8.4;spacingRight=3.8;spacingTop=2.4;" vertex="1" parent="1"><mxGeometry x="350.27" y="640" width="285.73138976153484" height="30" as="geometry"/></mxCell><mxCell id="11" value="Superclass(es):" style="shape=partialRectangle;html=1;whiteSpace=wrap;connectable=0;fillColor=#a5ceff;strokeOpacity=100;fillOpacity=100;verticalAlign=middle;spacing=3.8;strokeColor=#333333;strokeWidth=0.8;fontSize=15;fontColor=#333333;fontStyle=1;spacingLeft=8.4;spacingRight=3.8;spacingTop=2.4;" vertex="1" parent="1"><mxGeometry x="650.54" y="640" width="285.73138976153484" height="30" as="geometry"/></mxCell><mxCell id="12" value="Subclasses:" style="shape=partialRectangle;html=1;whiteSpace=wrap;connectable=0;fillColor=#a5ceff;strokeOpacity=100;fillOpacity=100;verticalAlign=middle;spacing=3.8;strokeColor=#333333;strokeWidth=0.8;fontSize=15;fontColor=#333333;fontStyle=1;spacingLeft=8.4;spacingRight=3.8;spacingTop=2.4;" vertex="1" parent="1"><mxGeometry x="350.13" y="670" width="285.73138976153484" height="30" as="geometry"/></mxCell><mxCell id="13" value="Subclasses:" style="shape=partialRectangle;html=1;whiteSpace=wrap;connectable=0;fillColor=#a5ceff;strokeOpacity=100;fillOpacity=100;verticalAlign=middle;spacing=3.8;strokeColor=#333333;strokeWidth=0.8;fontSize=15;fontColor=#333333;fontStyle=1;spacingLeft=8.4;spacingRight=3.8;spacingTop=2.4;" vertex="1" parent="1"><mxGeometry x="650" y="670" width="285.73138976153484" height="30" as="geometry"/></mxCell><mxCell id="14" value="" style="group;dropTarget=0;pointerEvents=0;html=1;" vertex="1" parent="1"><mxGeometry x="350.27" y="670" width="286" height="218" as="geometry"/></mxCell><mxCell id="15" value="&lt;ul style=&quot;margin: 0px ; padding-left: 10px ; list-style-position: inside ; list-style-type: disc&quot;&gt;&lt;li style=&quot;text-align: left ; color: #333333 ; font-size: 13.3px&quot;&gt;holds all methods of Player and Computer&lt;/li&gt;&lt;/ul&gt;" style="shape=partialRectangle;html=1;whiteSpace=wrap;connectable=0;fillColor=#ffffff;strokeOpacity=100;verticalAlign=middle;overflow=block;blockSpacing=1;spacing=3.8;strokeColor=#333333;strokeWidth=0.8;fontSize=13;" vertex="1" parent="14"><mxGeometry y="30" width="169.48138976153484" height="187.69463648933845" as="geometry"/></mxCell><mxCell id="16" value="&lt;ul style=&quot;margin: 0px ; padding-left: 10px ; list-style-position: inside ; list-style-type: disc&quot;&gt;&lt;li style=&quot;text-align: left ; color: #333333 ; font-size: 13.3px&quot;&gt;Player&lt;/li&gt;&lt;li style=&quot;text-align: left ; color: #333333 ; font-size: 13.3px&quot;&gt;Computer&lt;/li&gt;&lt;/ul&gt;" style="shape=partialRectangle;html=1;whiteSpace=wrap;connectable=0;fillColor=#ffffff;strokeOpacity=100;verticalAlign=middle;overflow=block;blockSpacing=1;spacing=3.8;strokeColor=#333333;strokeWidth=0.8;fontSize=13;" vertex="1" parent="14"><mxGeometry x="169.48138976153484" y="30" width="116.25" height="187.69463648933845" as="geometry"/></mxCell><mxCell id="17" value="" style="group;dropTarget=0;pointerEvents=0;html=1;" vertex="1" parent="1"><mxGeometry x="650" y="670" width="286" height="218" as="geometry"/></mxCell><mxCell id="18" value="&lt;ul style=&quot;margin: 0px ; padding-left: 10px ; list-style-position: inside ; list-style-type: disc&quot;&gt;&lt;li style=&quot;text-align: left ; color: #333333 ; font-size: 13.3px&quot;&gt;holds the information about each shiptype and its quantity&lt;/li&gt;&lt;/ul&gt;" style="shape=partialRectangle;html=1;whiteSpace=wrap;connectable=0;fillColor=#ffffff;strokeOpacity=100;verticalAlign=middle;overflow=block;blockSpacing=1;spacing=3.8;strokeColor=#333333;strokeWidth=0.8;fontSize=13;" vertex="1" parent="17"><mxGeometry y="30" width="169.48138976153484" height="187.69463648933845" as="geometry"/></mxCell><mxCell id="19" value="&lt;ul style=&quot;margin: 0px ; padding-left: 10px ; list-style-position: inside ; list-style-type: disc&quot;&gt;&lt;li style=&quot;text-align: left ; color: #333333 ; font-size: 13.3px&quot;&gt;Ship&lt;/li&gt;&lt;/ul&gt;" style="shape=partialRectangle;html=1;whiteSpace=wrap;connectable=0;fillColor=#ffffff;strokeOpacity=100;verticalAlign=middle;overflow=block;blockSpacing=1;spacing=3.8;strokeColor=#333333;strokeWidth=0.8;fontSize=13;" vertex="1" parent="17"><mxGeometry x="169.48138976153484" y="30" width="116.25" height="187.69463648933845" as="geometry"/></mxCell></root></mxGraphModel></diagram></mxfile>